<svg width="18" height="18" fill="none" xmlns="http://www.w3.org/2000/svg"><path fill-rule="evenodd" clip-rule="evenodd" d="M14.25 2.25h-3.135A2.258 2.258 0 0 0 9 .75c-.975 0-1.8.63-2.115 1.5H3.75c-.825 0-1.5.675-1.5 1.5v10.5c0 .825.675 1.5 1.5 1.5h10.5c.825 0 1.5-.675 1.5-1.5V3.75c0-.825-.675-1.5-1.5-1.5ZM9 2.25c.412 0 .75.337.75.75s-.338.75-.75.75A.752.752 0 0 1 8.25 3c0-.413.338-.75.75-.75Zm-3.75 10.5h5.25v-1.5H5.25v1.5Zm7.5-3h-7.5v-1.5h7.5v1.5Zm-7.5-3h7.5v-1.5h-7.5v1.5Z" fill="#ACACAC"/></svg>