<svg width="20" height="20" fill="none" xmlns="http://www.w3.org/2000/svg"><path fill-rule="evenodd" clip-rule="evenodd" d="M7.5 3.333c-.917 0-1.667.75-1.667 1.667s.75 1.667 1.667 1.667S9.167 5.917 9.167 5 8.417 3.333 7.5 3.333ZM5.833 10c0-.917.75-1.667 1.667-1.667s1.667.75 1.667 1.667-.75 1.667-1.667 1.667-1.667-.75-1.667-1.667ZM7.5 16.667c.917 0 1.667-.75 1.667-1.667s-.75-1.667-1.667-1.667-1.667.75-1.667 1.667.75 1.667 1.667 1.667ZM14.167 5c0 .917-.75 1.667-1.667 1.667S10.833 5.917 10.833 5s.75-1.667 1.667-1.667 1.667.75 1.667 1.667ZM12.5 8.333c-.917 0-1.667.75-1.667 1.667s.75 1.667 1.667 1.667 1.667-.75 1.667-1.667-.75-1.667-1.667-1.667ZM10.833 15c0-.917.75-1.667 1.667-1.667s1.667.75 1.667 1.667-.75 1.667-1.667 1.667-1.667-.75-1.667-1.667Z" fill="#ACACAC"/></svg>