<svg width="18" height="18" fill="none" xmlns="http://www.w3.org/2000/svg"><path fill-rule="evenodd" clip-rule="evenodd" d="M15.25 9a6.5 6.5 0 0 1-.058.817l1.758 1.375c.158.125.2.35.1.533l-1.667 2.883c-.1.184-.316.259-.508.184l-2.075-.834a6.4 6.4 0 0 1-1.408.817l-.317 2.208c-.025.2-.2.35-.408.35H7.333a.406.406 0 0 1-.408-.35l-.317-2.208a6.088 6.088 0 0 1-1.408-.817l-2.075.834a.419.419 0 0 1-.508-.184L.95 11.725a.42.42 0 0 1 .1-.533l1.758-1.375A6.61 6.61 0 0 1 2.75 9c0-.275.025-.55.058-.817L1.05 6.808a.41.41 0 0 1-.1-.533l1.667-2.883a.407.407 0 0 1 .508-.184l2.075.834c.433-.325.9-.609 1.408-.817l.317-2.208c.025-.2.2-.35.408-.35h3.334c.208 0 .383.15.408.35l.317 2.208c.508.208.975.483 1.408.817l2.075-.834a.419.419 0 0 1 .508.184l1.667 2.883a.42.42 0 0 1-.1.533l-1.758 1.375A6.5 6.5 0 0 1 15.25 9ZM6.083 9A2.92 2.92 0 0 0 9 11.917 2.92 2.92 0 0 0 11.917 9 2.92 2.92 0 0 0 9 6.083 2.92 2.92 0 0 0 6.083 9Z" fill="#ACACAC"/></svg>