<svg width="56" height="56" fill="none" xmlns="http://www.w3.org/2000/svg"><rect width="56" height="56" rx="10" fill="#F5FFE4"/><path fill-rule="evenodd" clip-rule="evenodd" d="M18 19h20c1.1 0 2 .9 2 2l-.01 14c0 1.1-.89 2-1.99 2H18c-1.1 0-2-.9-2-2V21c0-1.1.9-2 2-2Zm9 6c0-1.66-1.34-3-3-3s-3 1.34-3 3 1.34 3 3 3 3-1.34 3-3Zm-9 9v-1c0-2 4-3.1 6-3.1s6 1.1 6 3.1v1H18Zm17.49-4h-1.64c-.22-.63-.35-1.3-.35-2s.13-1.37.35-2h1.64L37 24l-1.99-1.99A7.474 7.474 0 0 0 32.28 26c-.18.64-.28 1.31-.28 2s.1 1.36.28 2a7.512 7.512 0 0 0 2.73 3.99L37 32l-1.51-2Z" fill="#79A63B"/></svg>