<svg width="18" height="18" fill="none" xmlns="http://www.w3.org/2000/svg"><path fill-rule="evenodd" clip-rule="evenodd" d="M1.5 2.25h15c.825 0 1.5.675 1.5 1.5l-.008 10.5c0 .825-.667 1.5-1.492 1.5h-15c-.825 0-1.5-.675-1.5-1.5V3.75c0-.825.675-1.5 1.5-1.5Zm6.75 4.5A2.247 2.247 0 0 0 6 4.5a2.247 2.247 0 0 0-2.25 2.25A2.247 2.247 0 0 0 6 9a2.247 2.247 0 0 0 2.25-2.25ZM1.5 13.5v-.75c0-1.5 3-2.325 4.5-2.325s4.5.825 4.5 2.325v.75h-9Zm13.117-3h-1.23a4.537 4.537 0 0 1-.262-1.5c0-.525.098-1.027.262-1.5h1.23L15.75 6l-1.492-1.492A5.605 5.605 0 0 0 12.21 7.5c-.135.48-.21.982-.21 1.5s.075 1.02.21 1.5a5.634 5.634 0 0 0 2.047 2.992L15.75 12l-1.133-1.5Z" fill="#ACACAC"/></svg>