<svg width="56" height="56" viewBox="0 0 56 56" fill="none" xmlns="http://www.w3.org/2000/svg">
<g filter="url(#filter0_dd_5_647)">
<rect x="4" y="2" width="48" height="48" rx="10" fill="white"/>
<path fill-rule="evenodd" clip-rule="evenodd" d="M34 25V30L36 32V33H20V32L22 30V25C22 21.92 23.63 19.36 26.5 18.68V18C26.5 17.17 27.17 16.5 28 16.5C28.83 16.5 29.5 17.17 29.5 18V18.68C32.36 19.36 34 21.93 34 25ZM30 34C30 35.1 29.1 36 28 36C26.89 36 26 35.1 26 34H30Z" fill="#ACACAC"/>
</g>
<defs>
<filter id="filter0_dd_5_647" x="0" y="0" width="56" height="56" filterUnits="userSpaceOnUse" color-interpolation-filters="sRGB">
<feFlood flood-opacity="0" result="BackgroundImageFix"/>
<feColorMatrix in="SourceAlpha" type="matrix" values="0 0 0 0 0 0 0 0 0 0 0 0 0 0 0 0 0 0 127 0" result="hardAlpha"/>
<feOffset dy="1"/>
<feGaussianBlur stdDeviation="0.5"/>
<feComposite in2="hardAlpha" operator="out"/>
<feColorMatrix type="matrix" values="0 0 0 0 0 0 0 0 0 0 0 0 0 0 0 0 0 0 0.05 0"/>
<feBlend mode="normal" in2="BackgroundImageFix" result="effect1_dropShadow_5_647"/>
<feColorMatrix in="SourceAlpha" type="matrix" values="0 0 0 0 0 0 0 0 0 0 0 0 0 0 0 0 0 0 127 0" result="hardAlpha"/>
<feOffset dy="2"/>
<feGaussianBlur stdDeviation="2"/>
<feComposite in2="hardAlpha" operator="out"/>
<feColorMatrix type="matrix" values="0 0 0 0 0 0 0 0 0 0 0 0 0 0 0 0 0 0 0.03 0"/>
<feBlend mode="normal" in2="effect1_dropShadow_5_647" result="effect2_dropShadow_5_647"/>
<feBlend mode="normal" in="SourceGraphic" in2="effect2_dropShadow_5_647" result="shape"/>
</filter>
</defs>
</svg>
