<svg width="20" height="20" viewBox="0 0 20 20" fill="none" xmlns="http://www.w3.org/2000/svg">
<path fill-rule="evenodd" clip-rule="evenodd" d="M7.50004 3.33333C6.58337 3.33333 5.83337 4.08333 5.83337 5C5.83337 5.91667 6.58337 6.66667 7.50004 6.66667C8.41671 6.66667 9.16671 5.91667 9.16671 5C9.16671 4.08333 8.41671 3.33333 7.50004 3.33333ZM5.83337 10C5.83337 9.08333 6.58337 8.33333 7.50004 8.33333C8.41671 8.33333 9.16671 9.08333 9.16671 10C9.16671 10.9167 8.41671 11.6667 7.50004 11.6667C6.58337 11.6667 5.83337 10.9167 5.83337 10ZM7.50004 16.6667C8.41671 16.6667 9.16671 15.9167 9.16671 15C9.16671 14.0833 8.41671 13.3333 7.50004 13.3333C6.58337 13.3333 5.83337 14.0833 5.83337 15C5.83337 15.9167 6.58337 16.6667 7.50004 16.6667ZM14.1667 5C14.1667 5.91667 13.4167 6.66667 12.5 6.66667C11.5834 6.66667 10.8334 5.91667 10.8334 5C10.8334 4.08333 11.5834 3.33333 12.5 3.33333C13.4167 3.33333 14.1667 4.08333 14.1667 5ZM12.5 8.33333C11.5834 8.33333 10.8334 9.08333 10.8334 10C10.8334 10.9167 11.5834 11.6667 12.5 11.6667C13.4167 11.6667 14.1667 10.9167 14.1667 10C14.1667 9.08333 13.4167 8.33333 12.5 8.33333ZM10.8334 15C10.8334 14.0833 11.5834 13.3333 12.5 13.3333C13.4167 13.3333 14.1667 14.0833 14.1667 15C14.1667 15.9167 13.4167 16.6667 12.5 16.6667C11.5834 16.6667 10.8334 15.9167 10.8334 15Z" fill="#ACACAC"/>
</svg>
