<svg width="56" height="56" viewBox="0 0 56 56" fill="none" xmlns="http://www.w3.org/2000/svg">
<rect width="56" height="56" rx="10" fill="#F5FFE4"/>
<path fill-rule="evenodd" clip-rule="evenodd" d="M18 19H38C39.1 19 40 19.9 40 21L39.99 35C39.99 36.1 39.1 37 38 37H18C16.9 37 16 36.1 16 35V21C16 19.9 16.9 19 18 19ZM27 25C27 23.34 25.66 22 24 22C22.34 22 21 23.34 21 25C21 26.66 22.34 28 24 28C25.66 28 27 26.66 27 25ZM18 34V33C18 31 22 29.9 24 29.9C26 29.9 30 31 30 33V34H18ZM35.49 30H33.85C33.63 29.37 33.5 28.7 33.5 28C33.5 27.3 33.63 26.63 33.85 26H35.49L37 24L35.01 22.01C33.7 22.99 32.73 24.38 32.28 26C32.1 26.64 32 27.31 32 28C32 28.69 32.1 29.36 32.28 30C32.73 31.61 33.7 33.01 35.01 33.99L37 32L35.49 30Z" fill="#79A63B"/>
</svg>
