<svg width="24" height="18" viewBox="0 0 24 18" fill="none" xmlns="http://www.w3.org/2000/svg">
<path fill-rule="evenodd" clip-rule="evenodd" d="M2 0H22C23.1 0 24 0.9 24 2L23.99 16C23.99 17.1 23.1 18 22 18H2C0.9 18 0 17.1 0 16V2C0 0.9 0.9 0 2 0ZM11 6C11 4.34 9.66 3 8 3C6.34 3 5 4.34 5 6C5 7.66 6.34 9 8 9C9.66 9 11 7.66 11 6ZM2 15V14C2 12 6 10.9 8 10.9C10 10.9 14 12 14 14V15H2ZM19.49 11H17.85C17.63 10.37 17.5 9.7 17.5 9C17.5 8.3 17.63 7.63 17.85 7H19.49L21 5L19.01 3.01C17.7 3.99 16.73 5.38 16.28 7C16.1 7.64 16 8.31 16 9C16 9.69 16.1 10.36 16.28 11C16.73 12.61 17.7 14.01 19.01 14.99L21 13L19.49 11Z" fill="#ACACAC"/>
</svg>
