<svg width="18" height="18" viewBox="0 0 18 18" fill="none" xmlns="http://www.w3.org/2000/svg">
<path fill-rule="evenodd" clip-rule="evenodd" d="M15.25 9.00002C15.25 9.28335 15.225 9.55002 15.1917 9.81669L16.95 11.1917C17.1083 11.3167 17.15 11.5417 17.05 11.725L15.3833 14.6084C15.2833 14.7917 15.0667 14.8667 14.875 14.7917L12.8 13.9584C12.3667 14.2834 11.9 14.5667 11.3917 14.775L11.075 16.9834C11.05 17.1834 10.875 17.3334 10.6667 17.3334H7.33332C7.12499 17.3334 6.94999 17.1834 6.92499 16.9834L6.60832 14.775C6.09999 14.5667 5.63332 14.2917 5.19999 13.9584L3.12499 14.7917C2.94165 14.8584 2.71665 14.7917 2.61665 14.6084L0.949988 11.725C0.849988 11.5417 0.891655 11.3167 1.04999 11.1917L2.80832 9.81669C2.77499 9.55002 2.74999 9.27502 2.74999 9.00002C2.74999 8.72502 2.77499 8.45002 2.80832 8.18335L1.04999 6.80835C0.891655 6.68335 0.841655 6.45835 0.949988 6.27502L2.61665 3.39169C2.71665 3.20835 2.93332 3.13335 3.12499 3.20835L5.19999 4.04169C5.63332 3.71669 6.09999 3.43335 6.60832 3.22502L6.92499 1.01669C6.94999 0.816687 7.12499 0.666687 7.33332 0.666687H10.6667C10.875 0.666687 11.05 0.816687 11.075 1.01669L11.3917 3.22502C11.9 3.43335 12.3667 3.70835 12.8 4.04169L14.875 3.20835C15.0583 3.14169 15.2833 3.20835 15.3833 3.39169L17.05 6.27502C17.15 6.45835 17.1083 6.68335 16.95 6.80835L15.1917 8.18335C15.225 8.45002 15.25 8.71669 15.25 9.00002ZM6.08332 9.00002C6.08332 10.6084 7.39165 11.9167 8.99999 11.9167C10.6083 11.9167 11.9167 10.6084 11.9167 9.00002C11.9167 7.39169 10.6083 6.08335 8.99999 6.08335C7.39165 6.08335 6.08332 7.39169 6.08332 9.00002Z" fill="#ACACAC"/>
</svg>
